<?xml version="1.0" encoding="UTF-8" standalone="no"?>
<!-- Created with Inkscape (http://www.inkscape.org/) -->

<svg
   width="98.415268mm"
   height="18.677755mm"
   viewBox="0 0 98.415268 18.677755"
   version="1.1"
   id="svg49145"
   inkscape:version="1.1 (c4e8f9ed74, 2021-05-24)"
   sodipodi:docname="cd_logo_light.svg"
   xmlns:inkscape="http://www.inkscape.org/namespaces/inkscape"
   xmlns:sodipodi="http://sodipodi.sourceforge.net/DTD/sodipodi-0.dtd"
   xmlns="http://www.w3.org/2000/svg"
   xmlns:svg="http://www.w3.org/2000/svg">
  <sodipodi:namedview
     id="namedview49147"
     pagecolor="#ffffff"
     bordercolor="#666666"
     borderopacity="1.0"
     inkscape:pageshadow="2"
     inkscape:pageopacity="0.0"
     inkscape:pagecheckerboard="0"
     inkscape:document-units="mm"
     showgrid="false"
     inkscape:zoom="1.9502576"
     inkscape:cx="220.22731"
     inkscape:cy="-38.96921"
     inkscape:window-width="1920"
     inkscape:window-height="1003"
     inkscape:window-x="0"
     inkscape:window-y="0"
     inkscape:window-maximized="1"
     inkscape:current-layer="layer1" />
  <defs
     id="defs49142" />
  <g
     inkscape:label="Layer 1"
     inkscape:groupmode="layer"
     id="layer1"
     transform="translate(-3.9706806,-3.7283672)">
    <path
       id="path2829-6-2-0-1-9-0-5-0-5-7-6-0-13-2-9-5-2"
       style="fill:#000000;fill-opacity:1;stroke:none;stroke-width:0.0999997;stroke-linecap:square;stroke-linejoin:round"
       d="m 13.309568,3.7283672 a 9.338556,9.338556 0 0 0 -9.3388874,9.3388738 9.338556,9.338556 0 0 0 9.3388874,9.338881 9.338556,9.338556 0 0 0 9.338868,-9.338881 9.338556,9.338556 0 0 0 -9.338868,-9.3388738 z m 0,0.418795 a 8.9196934,8.9196934 0 0 1 0.81713,0.038003 c 0.05288,0.2971584 0.09479,0.6046192 0.135279,0.9621065 A 7.9772504,7.9772504 0 0 0 13.309575,5.0900896 7.9772504,7.9772504 0 0 0 5.4371739,11.793669 c -0.2382722,0.04406 -0.4734811,0.088 -0.6461431,0.125632 -0.1793746,0.03876 -0.2499035,0.05621 -0.3301086,0.07337 A 8.9196934,8.9196934 0 0 1 13.309585,4.1473059 Z m 1.069279,0.064893 a 8.9196934,8.9196934 0 0 1 7.85078,8.8551388 8.9196934,8.9196934 0 0 1 -0.03807,0.814946 c -0.297392,0.05301 -0.60495,0.09483 -0.962157,0.135563 a 7.9772504,7.9772504 0 0 0 0.05724,-0.9502 7.9772504,7.9772504 0 0 0 -6.707877,-7.8756689 C 14.535476,4.9582245 14.49117,4.7256249 14.454263,4.5554913 14.41387,4.3699247 14.397025,4.294648 14.378543,4.2123798 Z m -1.069279,1.2965987 a 7.5583872,7.5583872 0 0 1 0.995676,0.066188 c 0.03123,0.3278593 0.04894,0.6300202 0.06065,0.9632362 A 6.6159435,6.6159435 0 0 0 13.309615,6.4517863 6.6159435,6.6159435 0 0 0 6.8614575,11.587139 c -0.33996,0.03329 -0.6487197,0.07556 -0.9838039,0.129829 A 7.5583872,7.5583872 0 0 1 13.309625,5.5090055 Z m 1.346335,0.1215058 a 7.5583872,7.5583872 0 0 1 6.212226,7.4373603 7.5583872,7.5583872 0 0 1 -0.0661,0.993551 c -0.328278,0.02877 -0.630538,0.04991 -0.963211,0.06151 a 6.6159435,6.6159435 0 0 0 0.08599,-1.05519 6.6159435,6.6159435 0 0 0 -5.13857,-6.4492542 c -0.03366,-0.3406856 -0.07589,-0.650659 -0.130967,-0.9881235 z m -1.346335,1.2402778 a 6.1970806,6.1970806 0 0 1 1.063888,0.09527 c 0.0017,0.3205205 -0.0017,0.6186251 -0.02826,0.953473 A 5.2546374,5.2546374 0 0 0 13.31055,7.8133394 5.2546374,5.2546374 0 0 0 8.2920555,11.513592 h -0.080373 c -0.3146103,-2.9e-4 -0.6001516,0.007 -0.9069679,0.03598 A 6.1970806,6.1970806 0 0 1 13.310218,6.8708773 Z m 1.51517,0.1905193 a 6.1970806,6.1970806 0 0 1 4.681897,6.0065732 6.1970806,6.1970806 0 0 1 -0.09533,1.062799 c -0.321011,0.0017 -0.619136,-0.0023 -0.953452,-0.02811 A 5.2546374,5.2546374 0 0 0 18.563754,13.067568 5.2546374,5.2546374 0 0 0 14.86024,8.0480148 v -0.072078 h 0.0011 C 14.86167,7.6587498 14.84825,7.3712664 14.8245,7.0614609 Z m -1.51517,1.1709811 a 4.8357759,4.8357759 0 0 1 0.991376,0.107406 c -0.03748,0.3152903 -0.08145,0.5971325 -0.134297,0.841985 -0.0034,0.028569 -0.01309,0.056712 -0.02188,0.085424 A 3.8933336,3.8933336 0 0 0 13.308178,9.1749835 3.8933336,3.8933336 0 0 0 9.7031243,11.602529 C 9.3596286,11.559846 9.0530329,11.539187 8.7269422,11.52678 A 4.8357759,4.8357759 0 0 1 13.308309,8.2322739 Z m 1.538988,0.2532755 a 4.8357759,4.8357759 0 0 1 3.296584,4.5823156 4.8357759,4.8357759 0 0 1 -0.107307,0.996759 c -0.325301,-0.038 -0.596647,-0.08761 -0.847385,-0.142022 -0.02826,-0.0034 -0.05317,-0.0071 -0.08025,-0.01931 a 3.8933336,3.8933336 0 0 0 0.09195,-0.83558 3.8933336,3.8933336 0 0 0 -2.43075,-3.6061102 c 0.04253,-0.3427771 0.06464,-0.6494141 0.07686,-0.9761963 z m -1.538988,1.1082818 a 3.4744705,3.4744705 0 0 1 0.735936,0.081369 c -0.07926,0.3053692 -0.165466,0.6065958 -0.255648,0.9058168 a 2.5320284,2.5320284 0 0 0 -0.480517,-0.04527 2.5320284,2.5320284 0 0 0 -2.202419,1.282447 c -0.370206,-0.05878 -0.667562,-0.108601 -0.972965,-0.154722 a 3.4744705,3.4744705 0 0 1 3.175388,-2.0691755 z m 1.402644,0.2976365 a 3.4744705,3.4744705 0 0 1 2.071442,3.1764393 3.4744705,3.4744705 0 0 1 -0.08121,0.734861 c -0.305196,-0.07915 -0.606897,-0.164309 -0.905858,-0.254531 a 2.5320284,2.5320284 0 0 0 0.0454,-0.480515 2.5320284,2.5320284 0 0 0 -1.284654,-2.204585 c 0.05875,-0.368759 0.108956,-0.66589 0.154705,-0.9718628 z m -1.402644,1.0627343 a 2.1131645,2.1131645 0 0 1 0.345254,0.02857 c -0.100007,0.271631 -0.214092,0.547752 -0.336616,0.823601 a 1.2565896,1.2565896 0 0 0 -0.0051,0 1.2565896,1.2565896 0 0 0 -0.318183,0.04529 1.2565896,1.2565896 0 0 0 -0.02826,0.0034 1.2565896,1.2565896 0 0 0 -0.03242,0.0057 1.2565896,1.2565896 0 0 0 -0.04305,0.02049 1.2565896,1.2565896 0 0 0 -0.212441,0.09967 1.2565896,1.2565896 0 0 0 -0.03807,0.01366 1.2565896,1.2565896 0 0 0 -0.02826,0.01929 1.2565896,1.2565896 0 0 0 -0.01309,0.007 1.2565896,1.2565896 0 0 0 -0.05422,0.03244 l -0.03894,-0.0034 c -0.286657,-0.06159 -0.576182,-0.11415 -0.947089,-0.175055 a 2.1131645,2.1131645 0 0 1 1.753029,-0.934773 z m 1.176419,0.357221 a 2.1131645,2.1131645 0 0 1 0.937232,1.756503 2.1131645,2.1131645 0 0 1 -0.02826,0.346334 c -0.273444,-0.100406 -0.551306,-0.21681 -0.829,-0.339865 a 1.2565896,1.2565896 0 0 0 -0.0051,-0.156088 1.2565896,1.2565896 0 0 0 -0.0051,-0.04018 1.2565896,1.2565896 0 0 0 -0.07487,-0.267346 1.2565896,1.2565896 0 0 0 -0.0051,-0.04015 1.2565896,1.2565896 0 0 0 -0.0051,-0.0073 1.2565896,1.2565896 0 0 0 -0.121549,-0.206922 1.2565896,1.2565896 0 0 0 -0.02597,-0.04426 l 0.0034,-0.039 c 0.0625,-0.288927 0.116256,-0.581416 0.177423,-0.95666 z m -6.9384104,0.688328 c 0.1996636,0.0023 0.3974121,0.01152 0.6147196,0.03123 a 5.2546374,5.2546374 0 0 0 -0.1073064,1.036827 5.2546374,5.2546374 0 0 0 3.7013482,5.019571 v 0.08978 h -0.0011 c -2.73e-4,0.310856 0.007,0.593625 0.0345,0.896119 A 6.1970806,6.1970806 0 0 1 7.1121833,13.06743 6.1970806,6.1970806 0 0 1 7.2088903,12.00142 c 0.1130402,-9.48e-4 0.230888,-0.0023 0.3387606,-0.0017 z m -0.7662389,0.0057 a 6.6159435,6.6159435 0 0 0 -0.087586,1.05736 6.6159435,6.6159435 0 0 0 5.1342913,6.447108 c 0.03319,0.341319 0.07507,0.650372 0.128506,0.984836 a 7.5583872,7.5583872 0 0 1 -6.2056991,-7.431894 7.5583872,7.5583872 0 0 1 0.071267,-0.996744 c 0.3262757,-0.02877 0.6275004,-0.04899 0.9588938,-0.06044 z m 1.7987362,0.06393 c 0.3176579,0.03732 0.6010935,0.08252 0.8473988,0.135434 0.028257,0.0034 0.053952,0.01152 0.081198,0.02025 a 3.8933336,3.8933336 0 0 0 -0.091855,0.837655 3.8933336,3.8933336 0 0 0 2.4296783,3.605076 c -0.04288,0.344989 -0.06458,0.651575 -0.07686,0.97726 A 4.8357759,4.8357759 0 0 1 8.4741633,13.062368 4.8357759,4.8357759 0 0 1 8.5800042,12.068848 Z M 5.39495,12.109254 a 7.9772504,7.9772504 0 0 0 -0.062873,0.953471 7.9772504,7.9772504 0 0 0 6.70032,7.872406 c 0.04502,0.243369 0.09076,0.481493 0.128506,0.656976 0.03752,0.172894 0.05288,0.240909 0.07074,0.319269 a 8.9196934,8.9196934 0 0 1 -7.8421161,-8.848497 8.9196934,8.9196934 0 0 1 0.041503,-0.818213 c 0.2976734,-0.05297 0.60581,-0.09483 0.9643018,-0.135549 z m 4.522787,0.215305 c 0.305822,0.07969 0.607324,0.166123 0.906937,0.256416 a 2.5320284,2.5320284 0 0 0 -0.04739,0.481581 2.5320284,2.5320284 0 0 0 1.284641,2.203538 c -0.05906,0.370823 -0.108985,0.667909 -0.154705,0.971861 a 3.4744705,3.4744705 0 0 1 -2.0714452,-3.175298 3.4744705,3.4744705 0 0 1 0.082493,-0.738071 z m 1.307372,0.390739 c 0.273111,0.100335 0.550676,0.214755 0.827955,0.337694 a 1.2565896,1.2565896 0 0 0 0,0.0047 1.2565896,1.2565896 0 0 0 0,0.0034 1.2565896,1.2565896 0 0 0 0,0.0034 1.2565896,1.2565896 0 0 0 0.0051,0.156087 1.2565896,1.2565896 0 0 0 0.007,0.05099 1.2565896,1.2565896 0 0 0 0.04652,0.17406 1.2565896,1.2565896 0 0 0 0.01309,0.06711 1.2565896,1.2565896 0 0 0 0.02597,0.05822 1.2565896,1.2565896 0 0 0 0.07572,0.132803 1.2565896,1.2565896 0 0 0 0.03894,0.06845 1.2565896,1.2565896 0 0 0 0.03345,0.0594 l -0.0034,0.03903 c -0.06119,0.284557 -0.113438,0.571369 -0.173067,0.938358 a 2.1131645,2.1131645 0 0 1 -0.93813,-1.755347 2.1131645,2.1131645 0 0 1 0.02826,-0.34742 z m 2.85934,1.342016 0.03124,0.0034 c 0.287146,0.06175 0.577871,0.114207 0.950225,0.175321 A 2.1131645,2.1131645 0 0 1 13.31045,15.17366 2.1131645,2.1131645 0 0 1 12.966295,15.14509 c 0.09959,-0.269864 0.213235,-0.543426 0.334406,-0.81712 a 1.2565896,1.2565896 0 0 0 0.0051,0 1.2565896,1.2565896 0 0 0 0.256423,-0.038 1.2565896,1.2565896 0 0 0 0.02826,-0.0034 1.2565896,1.2565896 0 0 0 0.150283,-0.05297 1.2565896,1.2565896 0 0 0 0.156726,-0.06701 1.2565896,1.2565896 0 0 0 0.03689,-0.01366 1.2565896,1.2565896 0 0 0 0.148229,-0.09175 z m 8.080235,0.07672 a 8.9196934,8.9196934 0 0 1 -8.855116,7.848755 8.9196934,8.9196934 0 0 1 -0.82035,-0.04157 c -0.05251,-0.297482 -0.09379,-0.605118 -0.134211,-0.964288 a 7.9772504,7.9772504 0 0 0 0.954581,0.06283 7.9772504,7.9772504 0 0 0 7.874552,-6.705742 c 0.236801,-0.04374 0.471066,-0.08797 0.642885,-0.125575 0.183018,-0.03998 0.256159,-0.05671 0.337669,-0.07465 z m -6.650534,0.17742 c 0.368947,0.05885 0.665764,0.108003 0.970793,0.153824 a 3.4744705,3.4744705 0 0 1 -3.175375,2.071547 3.4744705,3.4744705 0 0 1 -0.738086,-0.08254 c 0.08022,-0.3065 0.169284,-0.606549 0.259562,-0.906942 a 2.5320284,2.5320284 0 0 0 0.478362,0.04742 2.5320284,2.5320284 0 0 0 2.204589,-1.283539 z m 5.232771,0.09887 a 7.5583872,7.5583872 0 0 1 -7.437353,6.211229 7.5583872,7.5583872 0 0 1 -0.997855,-0.0713 c -0.02826,-0.32543 -0.0489,-0.626439 -0.0607,-0.958905 a 6.6159435,6.6159435 0 0 0 1.058491,0.0876 6.6159435,6.6159435 0 0 0 6.448124,-5.137541 c 0.341763,-0.03334 0.651806,-0.07599 0.989228,-0.130725 z m -3.832316,0.115772 c 0.343837,0.04268 0.650597,0.06319 0.977278,0.07575 a 4.8357759,4.8357759 0 0 1 -4.582315,3.296777 4.8357759,4.8357759 0 0 1 -0.992445,-0.105912 c 0.03763,-0.312981 0.08209,-0.593093 0.134296,-0.836614 0.0034,-0.03102 0.01309,-0.06117 0.02188,-0.09177 a 3.8933336,3.8933336 0 0 0 0.836636,0.09177 3.8933336,3.8933336 0 0 0 3.604993,-2.429717 z m 2.401542,0.05301 a 6.1970806,6.1970806 0 0 1 -6.006579,4.680901 6.1970806,6.1970806 0 0 1 -1.064969,-0.09528 c -0.0017,-0.320168 0.0017,-0.618571 0.02826,-0.954543 a 5.2546374,5.2546374 0 0 0 1.035735,0.107392 5.2546374,5.2546374 0 0 0 5.019553,-3.702411 h 0.07774 c 0.315343,2.83e-4 0.601425,-0.0073 0.909122,-0.03603 z" />
    <g
       id="g51746"
       transform="translate(4.5469908,2.503144)">
      <g
         id="g44043"
         transform="matrix(2.2092704,0,0,2.2092704,-271.41907,-53.472169)"
         style="fill:#000000;fill-opacity:1;stroke-width:0.452637">
        <path
           d="m 133.6867,29.93058 q 0.19054,0 0.34536,-0.07741 0.16078,-0.07741 0.27391,-0.226273 l 0.57164,0.565682 q -0.22032,0.267955 -0.55377,0.422773 -0.3275,0.148864 -0.69669,0.148864 -0.33345,0 -0.62522,-0.119091 -0.29178,-0.125045 -0.50614,-0.339409 -0.21437,-0.214364 -0.33941,-0.506137 -0.11909,-0.291773 -0.11909,-0.625228 0,-0.333455 0.11909,-0.625228 0.12504,-0.291773 0.33941,-0.506136 0.21436,-0.214364 0.50614,-0.333455 0.29177,-0.125046 0.62522,-0.125046 0.37514,0 0.70859,0.148864 0.33942,0.142909 0.57164,0.416818 l -0.5895,0.589501 q -0.14886,-0.172682 -0.30368,-0.250091 -0.15482,-0.08336 -0.35132,-0.08336 -0.28582,0 -0.47636,0.220319 -0.19055,0.220318 -0.19055,0.547818 0,0.321546 0.1965,0.541864 0.1965,0.214364 0.49423,0.214364 z"
           style="font-weight:bold;font-size:32px;line-height:1.25;font-family:'Red Hat Text';-inkscape-font-specification:'Red Hat Text Bold';white-space:pre;fill:#000000;fill-opacity:1;stroke-width:0.0842292"
           id="path2532-6" />
        <path
           d="m 138.06924,30.26999 q -0.29773,0.262 -0.60141,0.381091 -0.30368,0.113136 -0.69073,0.113136 -0.33941,0 -0.63714,-0.119091 -0.29177,-0.125045 -0.51209,-0.339409 -0.22032,-0.214364 -0.34536,-0.506137 -0.12505,-0.291773 -0.12505,-0.625228 0,-0.339409 0.11909,-0.631182 0.1191,-0.291773 0.32155,-0.506137 0.20841,-0.214364 0.49423,-0.333455 0.28582,-0.125045 0.61332,-0.125045 0.33345,0 0.60736,0.125045 0.27986,0.119091 0.47637,0.333455 0.20245,0.214364 0.31559,0.518046 0.11313,0.297727 0.11313,0.655001 v 0.208409 h -2.11386 q 0.0655,0.256045 0.262,0.416818 0.1965,0.160773 0.4585,0.160773 0.19054,0 0.34536,-0.0655 0.16077,-0.0655 0.262,-0.190545 z m -1.36955,-1.941184 q -0.22627,0 -0.38109,0.142909 -0.15482,0.142909 -0.21436,0.398955 h 1.22068 q -0.0596,-0.250091 -0.22627,-0.393 -0.16673,-0.148864 -0.39896,-0.148864 z"
           style="font-weight:bold;font-size:32px;line-height:1.25;font-family:'Red Hat Text';-inkscape-font-specification:'Red Hat Text Bold';white-space:pre;fill:#000000;fill-opacity:1;stroke-width:0.0842292"
           id="path2534-5" />
        <path
           d="m 138.81951,31.9849 v -4.352776 h 0.95272 v 0.428727 q 0.14887,-0.202454 0.39301,-0.321546 0.24413,-0.125045 0.51804,-0.125045 0.27986,0 0.52996,0.125045 0.25009,0.119092 0.42872,0.333455 0.18459,0.20841 0.29178,0.494228 0.10718,0.285818 0.10718,0.607364 0,0.321546 -0.11314,0.607364 -0.10718,0.279864 -0.30368,0.488274 -0.19055,0.208409 -0.45255,0.333454 -0.262,0.119091 -0.55972,0.119091 -0.25009,0 -0.46446,-0.08932 -0.21436,-0.09527 -0.36323,-0.267955 v 1.61964 z m 1.54223,-3.57273 q -0.17864,0 -0.32155,0.0655 -0.14291,0.05954 -0.25605,0.184591 v 1.024183 q 0.11314,0.113136 0.262,0.178636 0.14887,0.0655 0.3156,0.0655 0.31559,0 0.524,-0.214364 0.20841,-0.220318 0.20841,-0.547818 0,-0.321546 -0.21437,-0.53591 -0.20841,-0.220318 -0.51804,-0.220318 z"
           style="font-weight:bold;font-size:32px;line-height:1.25;font-family:'Red Hat Text';-inkscape-font-specification:'Red Hat Text Bold';white-space:pre;fill:#000000;fill-opacity:1;stroke-width:0.0842292"
           id="path2536-6" />
        <path
           d="m 142.65423,30.704672 v -4.257504 l 0.96464,-0.148864 v 1.834002 q 0.17864,-0.267955 0.42277,-0.40491 0.25009,-0.142909 0.54782,-0.142909 0.44659,0 0.73241,0.297728 0.28582,0.291773 0.28582,0.750273 v 2.072184 h -0.96464 v -1.79232 q 0,-0.256046 -0.14291,-0.410864 -0.13695,-0.160773 -0.36918,-0.160773 -0.15482,0 -0.28582,0.0655 -0.12504,0.05955 -0.22627,0.190546 v 2.107911 z"
           style="font-weight:bold;font-size:32px;line-height:1.25;font-family:'Red Hat Text';-inkscape-font-specification:'Red Hat Text Bold';white-space:pre;fill:#000000;fill-opacity:1;stroke-width:0.0842292"
           id="path2538-9" />
      </g>
      <g
         id="g44037"
         transform="matrix(2.4567774,0,0,2.4567774,-307.74571,-61.092675)"
         style="stroke-width:0.407038">
        <g
           aria-label="Deploy"
           transform="matrix(0.18607971,0,0,0.18607971,55.307385,-30.163684)"
           id="text206468-3-6-2-3-3"
           style="font-size:32px;line-height:1.25;white-space:pre;shape-inside:url(#rect206470-4-0-0-8);fill:#981c20;stroke-width:0.407038">
          <path
             d="m 490.05113,327.18142 v -22.4 h 7.42399 q 2.464,0 4.512,0.864 2.08,0.864 3.55201,2.368 1.47199,1.472 2.30399,3.552 0.832,2.048 0.832,4.416 0,2.368 -0.832,4.448 -0.8,2.048 -2.272,3.552 -1.47199,1.472 -3.552,2.336 -2.08,0.864 -4.544,0.864 z m 7.584,-20.192 h -5.12001 v 17.984 h 5.12001 q 1.79199,0 3.35999,-0.672 1.56801,-0.704 2.72,-1.888 1.152,-1.216 1.792,-2.848 0.672,-1.664 0.672,-3.584 0,-1.92 -0.672,-3.552 -0.64,-1.664 -1.792,-2.848 -1.15199,-1.216 -2.72,-1.888 -1.568,-0.704 -3.35999,-0.704 z"
             style="font-family:'Red Hat Text';-inkscape-font-specification:'Red Hat Text';stroke-width:0.407038"
             id="path2559-7" />
          <path
             d="m 525.79508,325.38942 q -1.344,1.056 -2.784,1.568 -1.44,0.512 -3.072,0.512 -1.632,0 -3.072,-0.608 -1.408,-0.64 -2.464,-1.728 -1.024,-1.088 -1.632,-2.56 -0.576,-1.504 -0.576,-3.2 0,-1.696 0.544,-3.168 0.576,-1.504 1.568,-2.56 0.992,-1.088 2.336,-1.696 1.344,-0.64 2.912,-0.64 1.536,0 2.848,0.608 1.312,0.608 2.272,1.664 0.96,1.024 1.504,2.496 0.544,1.44 0.544,3.104 v 0.704 h -12.256 q 0.16,2.368 1.76,3.968 1.6,1.568 3.808,1.568 1.216,0 2.336,-0.416 1.152,-0.448 1.952,-1.184 z m -6.272,-12.064 q -1.92,0 -3.296,1.376 -1.376,1.376 -1.696,3.52 h 9.888 q -0.256,-2.112 -1.632,-3.488 -1.344,-1.408 -3.264,-1.408 z"
             style="font-family:'Red Hat Text';-inkscape-font-specification:'Red Hat Text';stroke-width:0.407038"
             id="path2561-4" />
          <path
             d="m 530.72306,333.86942 v -22.304 h 2.304 v 2.24 q 0.896,-1.184 2.176,-1.792 1.312,-0.64 2.88,-0.64 1.504,0 2.816,0.64 1.344,0.608 2.304,1.696 0.96,1.056 1.504,2.528 0.576,1.472 0.576,3.136 0,1.696 -0.576,3.168 -0.544,1.472 -1.536,2.56 -0.992,1.056 -2.336,1.696 -1.344,0.608 -2.88,0.608 -1.472,0 -2.752,-0.544 -1.248,-0.576 -2.144,-1.632 v 8.64 z m 6.784,-20.448 q -1.376,0 -2.56,0.576 -1.152,0.544 -1.888,1.568 v 7.648 q 0.768,1.024 1.92,1.6 1.184,0.576 2.528,0.576 2.336,0 3.904,-1.696 1.568,-1.728 1.568,-4.288 0,-2.56 -1.568,-4.256 -1.568,-1.728 -3.904,-1.728 z"
             style="font-family:'Red Hat Text';-inkscape-font-specification:'Red Hat Text';stroke-width:0.407038"
             id="path2563-5" />
          <path
             d="m 551.715,303.82142 v 23.36 h -2.336 v -22.88 z"
             style="font-family:'Red Hat Text';-inkscape-font-specification:'Red Hat Text';stroke-width:0.407038"
             id="path2565-2" />
          <path
             d="m 555.81099,319.37342 q 0,-1.728 0.576,-3.2 0.576,-1.472 1.568,-2.56 1.024,-1.088 2.432,-1.696 1.408,-0.608 3.008,-0.608 1.632,0 3.008,0.608 1.408,0.608 2.432,1.696 1.024,1.088 1.6,2.56 0.576,1.472 0.576,3.2 0,1.728 -0.608,3.232 -0.576,1.504 -1.6,2.592 -0.992,1.056 -2.4,1.696 -1.408,0.608 -3.008,0.608 -1.6,0 -3.008,-0.608 -1.376,-0.64 -2.4,-1.728 -0.992,-1.088 -1.6,-2.56 -0.576,-1.504 -0.576,-3.232 z m 7.584,6.048 q 2.272,0 3.776,-1.696 1.536,-1.728 1.536,-4.32 0,-2.592 -1.536,-4.32 -1.504,-1.728 -3.776,-1.728 -2.272,0 -3.776,1.728 -1.504,1.728 -1.504,4.32 0,2.592 1.504,4.32 1.504,1.696 3.776,1.696 z"
             style="font-family:'Red Hat Text';-inkscape-font-specification:'Red Hat Text';stroke-width:0.407038"
             id="path2567-5" />
          <path
             d="m 577.69893,329.67742 1.024,-2.528 -6.016,-15.584 h 2.592 l 4.736,12.832 5.024,-12.832 h 2.592 l -7.744,18.816 q -0.736,1.888 -1.76,2.656 -0.992,0.8 -2.72,0.8 -0.32,0 -0.704,-0.064 -0.384,-0.032 -0.8,-0.16 v -2.08 q 0.48,0.096 0.736,0.096 0.288,0.032 0.544,0.032 0.896,0 1.472,-0.48 0.608,-0.448 1.024,-1.504 z"
             style="font-family:'Red Hat Text';-inkscape-font-specification:'Red Hat Text';stroke-width:0.407038"
             id="path2569-4" />
        </g>
      </g>
    </g>
  </g>
</svg>
