<?xml version="1.0" encoding="UTF-8"?>
<svg width="313.98mm" height="26.458mm" version="1.1" viewBox="0 0 313.98 26.458" xmlns="http://www.w3.org/2000/svg" xmlns:cc="http://creativecommons.org/ns#" xmlns:dc="http://purl.org/dc/elements/1.1/" xmlns:rdf="http://www.w3.org/1999/02/22-rdf-syntax-ns#">
 <metadata>
  <rdf:RDF>
   <cc:Work rdf:about="">
    <dc:format>image/svg+xml</dc:format>
    <dc:type rdf:resource="http://purl.org/dc/dcmitype/StillImage"/>
    <dc:title/>
   </cc:Work>
  </rdf:RDF>
 </metadata>
 <path d="m155.27 0.058468v10.321h-145.74v0a6.8665 6.8665 0 0 0-6.8558 6.8553 6.8665 6.8665 0 0 0 0 0.01114h-0.014033v3.4394h-2.6115l2.6115 3.4502v0.0048l0.82811 1.0942 0.89725 1.1856 0.9016-1.1909 0.82038-1.0841v0.0084l2.6195-3.4605h-2.6195v-3.4471a3.4333 3.4333 0 0 1 0-0.02127 3.4333 3.4333 0 0 1 3.4224-3.412h145.74v6.875h-2.6115l2.6115 3.451v0.0051l0.82812 1.094 0.89724 1.1856 0.9016-1.1907 0.82038-1.0841v0.0084l2.6195-3.4606h-2.6195v-6.883h145.74a3.4333 3.4333 0 0 1 3.4333 3.412 3.4333 3.4333 0 0 1 0 0.02127h-0.014v3.4394h-2.6115l2.6115 3.4502v0.0048l0.82811 1.0942 0.89725 1.1856 0.9016-1.1909 0.82038-1.0841v0.0084l2.6195-3.4606h-2.6195v-3.4471a6.8665 6.8665 0 0 0 0-0.01114 6.8665 6.8665 0 0 0-6.8666-6.8553v0h-145.74v-10.321z" fill="#808080" stroke="#808080" stroke-linecap="round" stroke-linejoin="bevel" stroke-width=".11694"/>
</svg>
