<?xml version="1.0" encoding="UTF-8" standalone="no"?>
<svg
   xmlns:dc="http://purl.org/dc/elements/1.1/"
   xmlns:cc="http://creativecommons.org/ns#"
   xmlns:rdf="http://www.w3.org/1999/02/22-rdf-syntax-ns#"
   xmlns:svg="http://www.w3.org/2000/svg"
   xmlns="http://www.w3.org/2000/svg"
   xmlns:sodipodi="http://sodipodi.sourceforge.net/DTD/sodipodi-0.dtd"
   xmlns:inkscape="http://www.inkscape.org/namespaces/inkscape"
   width="1186.7269"
   height="99.999619"
   version="1.1"
   viewBox="0 0 313.98813 26.458232"
   id="svg6"
   sodipodi:docname="merge3.svg"
   inkscape:version="1.0.2 (e86c870879, 2021-01-15, custom)">
  <defs
     id="defs10" />
  <sodipodi:namedview
     pagecolor="#ffffff"
     bordercolor="#666666"
     borderopacity="1"
     objecttolerance="10"
     gridtolerance="10"
     guidetolerance="10"
     inkscape:pageopacity="0"
     inkscape:pageshadow="2"
     inkscape:window-width="1920"
     inkscape:window-height="1006"
     id="namedview8"
     showgrid="false"
     fit-margin-left="2.7755576e-17"
     units="px"
     fit-margin-top="0"
     fit-margin-right="0"
     fit-margin-bottom="0"
     inkscape:zoom="0.49431232"
     inkscape:cx="1068.3472"
     inkscape:cy="61.726966"
     inkscape:window-x="0"
     inkscape:window-y="0"
     inkscape:window-maximized="1"
     inkscape:current-layer="svg6" />
  <metadata
     id="metadata2">
    <rdf:RDF>
      <cc:Work
         rdf:about="">
        <dc:format>image/svg+xml</dc:format>
        <dc:type
           rdf:resource="http://purl.org/dc/dcmitype/StillImage" />
        <dc:title></dc:title>
      </cc:Work>
    </rdf:RDF>
  </metadata>
  <path
     d="m 155.27174,0.055781 v 6.8891 H 9.3717449 a 3.4371,3.4371 0 0 1 -3.4371,-3.4158 3.4371,3.4371 0 0 1 0,-0.021306 h 0.014048 v -3.4432 h -3.4512 v 3.4432 a 6.8741,6.8741 0 0 0 0,0.011145 6.8741,6.8741 0 0 0 6.874,6.8629 v 4.68e-4 H 155.26149 v 10.301 h -2.6144 l 2.6144,3.4541 v 0.0048 l 0.82904,1.0955 0.89824,1.1869 0.90259,-1.1923 0.82129,-1.0853 v 0.0085 l 2.6224,-3.4645 h -2.6224 v -10.306 h 0.004 v -0.0028 h 145.9 v -2.48e-4 a 6.8741,6.8741 0 0 0 0.0111,0 6.8741,6.8741 0 0 0 6.8629,-6.8742 v -3.4432 h -3.4512 v 3.4432 h 0.0143 a 3.4371,3.4371 0 0 1 -3.4158,3.4371 3.4371,3.4371 0 0 1 -0.0213,0 h -145.9 v -6.8891 z"
     fill="#808080"
     stroke="#808080"
     stroke-linecap="round"
     stroke-linejoin="bevel"
     stroke-width="0.11148"
     id="path4" />
</svg>
