<?xml version="1.0" encoding="UTF-8" standalone="no"?>
<svg
   xmlns:dc="http://purl.org/dc/elements/1.1/"
   xmlns:cc="http://creativecommons.org/ns#"
   xmlns:rdf="http://www.w3.org/1999/02/22-rdf-syntax-ns#"
   xmlns:svg="http://www.w3.org/2000/svg"
   xmlns="http://www.w3.org/2000/svg"
   xmlns:sodipodi="http://sodipodi.sourceforge.net/DTD/sodipodi-0.dtd"
   xmlns:inkscape="http://www.inkscape.org/namespaces/inkscape"
   width="10.640237mm"
   height="13.229167mm"
   version="1.1"
   viewBox="0 0 10.640237 13.229167"
   id="svg6"
   sodipodi:docname="merge2.svg"
   inkscape:version="1.0.2 (e86c870879, 2021-01-15, custom)">
  <defs
     id="defs10" />
  <sodipodi:namedview
     pagecolor="#ffffff"
     bordercolor="#666666"
     borderopacity="1"
     objecttolerance="10"
     gridtolerance="10"
     guidetolerance="10"
     inkscape:pageopacity="0"
     inkscape:pageshadow="2"
     inkscape:window-width="1920"
     inkscape:window-height="1006"
     id="namedview8"
     showgrid="false"
     fit-margin-top="0"
     fit-margin-left="0"
     fit-margin-right="0"
     fit-margin-bottom="0"
     inkscape:zoom="7.15009"
     inkscape:cx="40.214175"
     inkscape:cy="49.999552"
     inkscape:window-x="0"
     inkscape:window-y="0"
     inkscape:window-maximized="1"
     inkscape:current-layer="svg6" />
  <metadata
     id="metadata2">
    <rdf:RDF>
      <cc:Work
         rdf:about="">
        <dc:format>image/svg+xml</dc:format>
        <dc:type
           rdf:resource="http://purl.org/dc/dcmitype/StillImage" />
        <dc:title></dc:title>
      </cc:Work>
    </rdf:RDF>
  </metadata>
  <path
     d="m 0.02453765,0.02457015 v 0.0098941 C 0.02727915,3.3984338 0.8749926,4.3208391 2.9887049,5.5664964 3.8000596,6.0446941 4.558464,7.4759575 4.563614,9.1525172 c 6.2e-6,0.00305 0,0.00602 0,0.00905 V 10.687076 H 3.4127573 l 1.1508567,1.520459 v 0.0021 l 0.3649422,0.482218 0.3954023,0.522503 0.3973223,-0.524853 0.3615271,-0.477743 v 0.0038 L 7.2371646,10.690451 H 6.0828079 V 9.1713423 h -0.00619 v -0.00981 c 0,-0.00305 -4.5e-6,-0.006 0,-0.00905 C 6.0817579,7.4759225 6.8401773,6.0446641 7.651532,5.5664614 9.7651943,4.3207041 10.612949,3.3982488 10.615699,0.03442921 v -0.0098916 l -1.5130086,1.0306e-4 c 10e-6,0.006287 10e-6,0.01257408 0,0.01886111 C 9.0975589,1.7200616 9.0024298,2.9397187 7.6432319,3.865474 6.7166766,4.4965777 5.8851717,5.0155807 5.3201184,5.9037359 4.7551151,5.0155307 3.9234603,4.4965777 2.9969049,3.865474 1.637747,2.9397187 1.5426965,1.7200616 1.5375964,0.04350182 c -1.03e-5,-0.006287 -1.03e-5,-0.01257407 0,-0.01886111 z"
     fill="#808080"
     stroke="#808080"
     stroke-linecap="round"
     stroke-linejoin="bevel"
     stroke-width="0.0490753"
     id="path4" />
</svg>
