<?xml version="1.0" encoding="UTF-8" standalone="no"?>
<svg
   xmlns:dc="http://purl.org/dc/elements/1.1/"
   xmlns:cc="http://creativecommons.org/ns#"
   xmlns:rdf="http://www.w3.org/1999/02/22-rdf-syntax-ns#"
   xmlns:svg="http://www.w3.org/2000/svg"
   xmlns="http://www.w3.org/2000/svg"
   xmlns:sodipodi="http://sodipodi.sourceforge.net/DTD/sodipodi-0.dtd"
   xmlns:inkscape="http://www.inkscape.org/namespaces/inkscape"
   width="25.8832mm"
   height="26.458216mm"
   viewBox="0 0 25.8832 26.458216"
   version="1.1"
   id="svg2737"
   inkscape:version="1.0.2 (e86c870879, 2021-01-15, custom)"
   sodipodi:docname="fork2.svg">
  <defs
     id="defs2731" />
  <sodipodi:namedview
     id="base"
     pagecolor="#ffffff"
     bordercolor="#666666"
     borderopacity="1.0"
     inkscape:pageopacity="0.0"
     inkscape:pageshadow="2"
     inkscape:zoom="2.8"
     inkscape:cx="129.51858"
     inkscape:cy="59.563129"
     inkscape:document-units="mm"
     inkscape:current-layer="layer1"
     inkscape:document-rotation="0"
     showgrid="false"
     inkscape:window-width="1920"
     inkscape:window-height="1009"
     inkscape:window-x="1920"
     inkscape:window-y="0"
     inkscape:window-maximized="1"
     fit-margin-top="0"
     fit-margin-left="0"
     fit-margin-right="0"
     fit-margin-bottom="0" />
  <metadata
     id="metadata2734">
    <rdf:RDF>
      <cc:Work
         rdf:about="">
        <dc:format>image/svg+xml</dc:format>
        <dc:type
           rdf:resource="http://purl.org/dc/dcmitype/StillImage" />
        <dc:title></dc:title>
      </cc:Work>
    </rdf:RDF>
  </metadata>
  <g
     inkscape:label="Layer 1"
     inkscape:groupmode="layer"
     id="layer1">
    <path
       id="rect1091-9-7-4-3-1-6-50"
       style="fill:#808080;fill-opacity:1;stroke:#808080;stroke-width:0.098;stroke-linecap:round;stroke-linejoin:bevel;stroke-miterlimit:4;stroke-dasharray:none;stroke-opacity:0.698816"
       d="m 11.418901,0.049 v 0.01983 c 0,0.00604 6e-6,0.011998 0,0.018097 C 11.408661,3.4400487 9.8918113,6.3025633 8.269082,7.2589749 4.0417247,9.7504654 2.3462412,11.595403 2.3407747,18.323286 v 0.01982 3.031376 H 0.03907019 l 2.30170451,3.040957 v 0.0034 l 0.7298786,0.964543 0.7908104,1.044969 0.7946443,-1.049669 0.7230655,-0.955498 v 0.0072 l 2.3087246,-3.04878 H 5.3791735 v -3.038217 h -0.012377 c -2.08e-5,-0.01282 -2.08e-5,-0.02517 0,-0.03792 0.010308,-3.352979 0.2003084,-5.792246 2.9186694,-7.643779 C 10.138612,9.3994614 11.80184,8.361557 12.9319,6.5851268 c 1.13005,1.7763989 2.79309,2.8143486 4.646219,4.0765612 2.718353,1.851533 2.908622,4.2908 2.918884,7.643926 2.6e-5,0.01278 2.6e-5,0.02512 0,0.0379 v 3.031379 h -2.301708 l 2.301704,3.040938 v 0.0034 l 0.729872,0.964442 0.790813,1.044966 0.794651,-1.049663 0.72306,-0.955497 v 0.0071 l 2.308738,-3.049691 h -2.308731 v -3.03816 h -0.01237 v -0.01984 c -0.0056,-6.727356 -1.70094,-8.5722886 -5.928303,-11.0637769 -1.622724,-0.9564255 -3.139552,-3.8189396 -3.14982,-7.1720628 -1e-5,-0.012782 -1e-5,-0.025556 0,-0.037928 z" />
  </g>
</svg>
