<?xml version="1.0" encoding="UTF-8" standalone="no"?>
<svg
   xmlns:dc="http://purl.org/dc/elements/1.1/"
   xmlns:cc="http://creativecommons.org/ns#"
   xmlns:rdf="http://www.w3.org/1999/02/22-rdf-syntax-ns#"
   xmlns:svg="http://www.w3.org/2000/svg"
   xmlns="http://www.w3.org/2000/svg"
   xmlns:sodipodi="http://sodipodi.sourceforge.net/DTD/sodipodi-0.dtd"
   xmlns:inkscape="http://www.inkscape.org/namespaces/inkscape"
   width="210mm"
   height="297mm"
   viewBox="0 0 210 297"
   version="1.1"
   id="svg3373"
   inkscape:version="1.0.2 (e86c870879, 2021-01-15, custom)"
   sodipodi:docname="merge2.svg">
  <defs
     id="defs3367" />
  <sodipodi:namedview
     id="base"
     pagecolor="#ffffff"
     bordercolor="#666666"
     borderopacity="1.0"
     inkscape:pageopacity="0.0"
     inkscape:pageshadow="2"
     inkscape:zoom="2.8"
     inkscape:cx="128.55264"
     inkscape:cy="128.8775"
     inkscape:document-units="mm"
     inkscape:current-layer="layer1"
     inkscape:document-rotation="0"
     showgrid="false"
     inkscape:window-width="1920"
     inkscape:window-height="1009"
     inkscape:window-x="1920"
     inkscape:window-y="0"
     inkscape:window-maximized="1" />
  <metadata
     id="metadata3370">
    <rdf:RDF>
      <cc:Work
         rdf:about="">
        <dc:format>image/svg+xml</dc:format>
        <dc:type
           rdf:resource="http://purl.org/dc/dcmitype/StillImage" />
        <dc:title></dc:title>
      </cc:Work>
    </rdf:RDF>
  </metadata>
  <g
     inkscape:label="Layer 1"
     inkscape:groupmode="layer"
     id="layer1">
    <path
       id="rect1091-9-7-4-3-1-8"
       style="fill:#808080;fill-opacity:1;stroke:#808080;stroke-width:0.0981502;stroke-linecap:round;stroke-linejoin:bevel;stroke-miterlimit:4;stroke-dasharray:none;stroke-opacity:1"
       d="M 0.04907511,0.0490916 V 0.06887994 C 0.05455813,6.7967329 1.7500114,8.6416294 5.9773345,11.13311 c 1.6227146,0.956392 3.1395286,3.818884 3.1497938,7.171978 1.24e-5,0.0061 0,0.01204 0,0.0181 v 0.01983 3.031121 H 6.8254466 l 2.3016817,3.040933 v 0.0042 l 0.7298768,0.964434 0.7908039,1.044961 0.794639,-1.049652 0.723053,-0.955477 v 0.0075 l 2.308715,-3.050093 h -2.308715 v -3.038159 h -0.01237 v -0.01962 c 0,-0.0061 -9e-6,-0.012 0,-0.0181 0.01027,-3.353094 1.527079,-6.215586 3.149794,-7.171977 4.227323,-2.491481 5.922789,-4.3363776 5.928259,-11.06423055 V 0.04907511 l -3.026017,2.0612e-4 c 2e-5,0.01257385 2e-5,0.0251477 0,0.03772154 C 18.194904,3.4401178 18.004644,5.8793863 15.286314,7.7308707 13.433213,8.9930788 11.770171,10.031039 10.640125,11.80739 9.5100823,10.030974 7.8468593,8.9930994 5.9937258,7.7308707 3.2753922,5.8793863 3.0853457,3.4401178 3.0750805,0.08700277 c -2.06e-5,-0.01257384 -2.06e-5,-0.02514769 0,-0.03772154 z" />
  </g>
</svg>
