<?xml version="1.0" encoding="UTF-8" standalone="no"?>
<svg
   xmlns:dc="http://purl.org/dc/elements/1.1/"
   xmlns:cc="http://creativecommons.org/ns#"
   xmlns:rdf="http://www.w3.org/1999/02/22-rdf-syntax-ns#"
   xmlns:svg="http://www.w3.org/2000/svg"
   xmlns="http://www.w3.org/2000/svg"
   xmlns:sodipodi="http://sodipodi.sourceforge.net/DTD/sodipodi-0.dtd"
   xmlns:inkscape="http://www.inkscape.org/namespaces/inkscape"
   width="309.10855mm"
   height="26.458336mm"
   viewBox="0 0 309.10855 26.458336"
   version="1.1"
   id="svg3991"
   inkscape:version="1.0.2 (e86c870879, 2021-01-15, custom)"
   sodipodi:docname="merge3.svg">
  <defs
     id="defs3985" />
  <sodipodi:namedview
     id="base"
     pagecolor="#ffffff"
     bordercolor="#666666"
     borderopacity="1.0"
     inkscape:pageopacity="0.0"
     inkscape:pageshadow="2"
     inkscape:zoom="0.49497475"
     inkscape:cx="610.59814"
     inkscape:cy="397.08462"
     inkscape:document-units="mm"
     inkscape:current-layer="layer1"
     inkscape:document-rotation="0"
     showgrid="false"
     inkscape:window-width="1920"
     inkscape:window-height="1009"
     inkscape:window-x="1920"
     inkscape:window-y="0"
     inkscape:window-maximized="1"
     fit-margin-top="0"
     fit-margin-left="0"
     fit-margin-right="0"
     fit-margin-bottom="0" />
  <metadata
     id="metadata3988">
    <rdf:RDF>
      <cc:Work
         rdf:about="">
        <dc:format>image/svg+xml</dc:format>
        <dc:type
           rdf:resource="http://purl.org/dc/dcmitype/StillImage" />
        <dc:title></dc:title>
      </cc:Work>
    </rdf:RDF>
  </metadata>
  <g
     inkscape:label="Layer 1"
     inkscape:groupmode="layer"
     id="layer1">
    <path
       id="rect1091-9-7-4-3-10-9-9-8"
       style="fill:#808080;fill-opacity:1;stroke:#808080;stroke-width:0.111485;stroke-linecap:round;stroke-linejoin:bevel;stroke-miterlimit:4;stroke-dasharray:none;stroke-opacity:1"
       d="m 152.82858,0.05574227 v 3.44316683 3.4431716 0.00281 H 6.9299807 a 3.4370683,3.4370683 0 0 1 -3.4371215,-3.4158249 3.4370683,3.4370683 0 0 1 0,-0.021306 h 0.014048 V 0.06457843 H 0.05574227 V 3.5077594 a 6.8741364,6.874135 0 0 0 0,0.011145 6.8741364,6.874135 0 0 0 6.87399963,6.8628736 v 4.68e-4 H 152.82472 v 3.41486 0.0063 3.436873 3.443172 h -2.61438 l 2.61438,3.454059 v 0.0048 l 0.82904,1.095454 0.89824,1.186926 0.90259,-1.192254 0.82129,-1.085294 v 0.0085 l 2.62236,-3.464464 h -2.62236 v -3.450916 -3.436874 -0.0063 -3.411962 h 0.004 v -0.0028 h 145.89896 v -2.48e-4 a 6.874135,6.8741364 0 0 0 0.0111,0 6.874135,6.8741364 0 0 0 6.86288,-6.8742334 V 0.06465336 h -3.45115 V 3.5078343 h 0.0143 a 3.4370683,3.4370683 0 0 1 -3.41583,3.4371122 3.4370683,3.4370683 0 0 1 -0.0213,0 H 156.27974 V 6.9421369 3.4989653 0.05579846 Z" />
  </g>
</svg>
